<?xml version="1.0" standalone="no"?><svg xmlns="http://www.w3.org/2000/svg" viewBox="0 0 1440 320"><path fill="#e7008a" fill-opacity="1" d="M0,224L6.2,197.3C12.3,171,25,117,37,85.3C49.2,53,62,43,74,74.7C86.2,107,98,181,111,208C123.1,235,135,213,148,218.7C160,224,172,256,185,250.7C196.9,245,209,203,222,176C233.8,149,246,139,258,128C270.8,117,283,107,295,96C307.7,85,320,75,332,80C344.6,85,357,107,369,112C381.5,117,394,107,406,101.3C418.5,96,431,96,443,122.7C455.4,149,468,203,480,197.3C492.3,192,505,128,517,101.3C529.2,75,542,85,554,90.7C566.2,96,578,96,591,101.3C603.1,107,615,117,628,154.7C640,192,652,256,665,266.7C676.9,277,689,235,702,229.3C713.8,224,726,256,738,250.7C750.8,245,763,203,775,154.7C787.7,107,800,53,812,58.7C824.6,64,837,128,849,170.7C861.5,213,874,235,886,240C898.5,245,911,235,923,197.3C935.4,160,948,96,960,96C972.3,96,985,160,997,176C1009.2,192,1022,160,1034,154.7C1046.2,149,1058,171,1071,192C1083.1,213,1095,235,1108,245.3C1120,256,1132,256,1145,256C1156.9,256,1169,256,1182,245.3C1193.8,235,1206,213,1218,176C1230.8,139,1243,85,1255,74.7C1267.7,64,1280,96,1292,101.3C1304.6,107,1317,85,1329,112C1341.5,139,1354,213,1366,250.7C1378.5,288,1391,288,1403,288C1415.4,288,1428,288,1434,288L1440,288L1440,0L1433.8,0C1427.7,0,1415,0,1403,0C1390.8,0,1378,0,1366,0C1353.8,0,1342,0,1329,0C1316.9,0,1305,0,1292,0C1280,0,1268,0,1255,0C1243.1,0,1231,0,1218,0C1206.2,0,1194,0,1182,0C1169.2,0,1157,0,1145,0C1132.3,0,1120,0,1108,0C1095.4,0,1083,0,1071,0C1058.5,0,1046,0,1034,0C1021.5,0,1009,0,997,0C984.6,0,972,0,960,0C947.7,0,935,0,923,0C910.8,0,898,0,886,0C873.8,0,862,0,849,0C836.9,0,825,0,812,0C800,0,788,0,775,0C763.1,0,751,0,738,0C726.2,0,714,0,702,0C689.2,0,677,0,665,0C652.3,0,640,0,628,0C615.4,0,603,0,591,0C578.5,0,566,0,554,0C541.5,0,529,0,517,0C504.6,0,492,0,480,0C467.7,0,455,0,443,0C430.8,0,418,0,406,0C393.8,0,382,0,369,0C356.9,0,345,0,332,0C320,0,308,0,295,0C283.1,0,271,0,258,0C246.2,0,234,0,222,0C209.2,0,197,0,185,0C172.3,0,160,0,148,0C135.4,0,123,0,111,0C98.5,0,86,0,74,0C61.5,0,49,0,37,0C24.6,0,12,0,6,0L0,0Z"></path></svg>